<svg width="24" height="24" viewBox="0 0 24 24" fill="none" xmlns="http://www.w3.org/2000/svg">
  <path d="M7.8 4.5H5.9C5.13 4.5 4.5 5.13 4.5 5.9C4.5 13.91 10.99 20.4 19 20.4C19.77 20.4 20.4 19.77 20.4 19V17.1C20.4 16.55 20.08 16.06 19.58 15.84L16.95 14.72C16.5 14.53 15.98 14.64 15.65 14.99L14.56 16.13C12.67 15.22 11.18 13.73 10.27 11.84L11.41 10.75C11.76 10.42 11.87 9.9 11.68 9.45L10.56 6.82C10.34 6.32 9.85 6 9.3 6H7.8V4.5Z" stroke="#355D76" stroke-width="1.8" stroke-linecap="round" stroke-linejoin="round"/>
</svg>
