<svg width="52" height="52" viewBox="0 0 52 52" fill="none" xmlns="http://www.w3.org/2000/svg">
  <circle cx="26" cy="26" r="18" fill="#FFF8EF"/>
  <path d="M18.9 15.7C20.8 14.3 23.3 13.5 26 13.5C28.7 13.5 31.2 14.3 33.1 15.7" stroke="#25364A" stroke-opacity="0.18" stroke-width="1.4" stroke-linecap="round"/>
  <path d="M18.6 36.2C20.6 37.7 23.2 38.5 26 38.5C28.8 38.5 31.4 37.7 33.4 36.2" stroke="#25364A" stroke-opacity="0.18" stroke-width="1.4" stroke-linecap="round"/>
  <path d="M26 11.9V15.1" stroke="#F5A623" stroke-width="1.6" stroke-linecap="round"/>
  <path d="M22.8 14.3L24.4 15.7" stroke="#F5A623" stroke-opacity="0.84" stroke-width="1.4" stroke-linecap="round"/>
  <path d="M29.2 14.3L27.6 15.7" stroke="#F5A623" stroke-opacity="0.84" stroke-width="1.4" stroke-linecap="round"/>
  <path d="M26 17.6L31.5 23.1L26 28.6L20.5 23.1L26 17.6Z" fill="#F5A623"/>
  <path d="M26 20.3L29.1 23.4L26 26.5L22.9 23.4L26 20.3Z" fill="#FFD166"/>
  <path d="M26 28.6V33.8" stroke="#25364A" stroke-opacity="0.74" stroke-width="1.8" stroke-linecap="round"/>
  <path d="M22.1 33.8H29.9" stroke="#25364A" stroke-opacity="0.74" stroke-width="1.8" stroke-linecap="round"/>
  <path d="M18.4 23.2H15.9" stroke="#25364A" stroke-opacity="0.66" stroke-width="1.6" stroke-linecap="round"/>
  <path d="M36.1 23.2H33.6" stroke="#25364A" stroke-opacity="0.66" stroke-width="1.6" stroke-linecap="round"/>
  <circle cx="14.8" cy="23.2" r="1.3" fill="#7B9CD6"/>
  <circle cx="37.2" cy="23.2" r="1.3" fill="#7B9CD6"/>
  <circle cx="26" cy="31.2" r="1.2" fill="#25364A"/>
</svg>
