<svg width="52" height="52" viewBox="0 0 52 52" fill="none" xmlns="http://www.w3.org/2000/svg">
  <circle cx="26" cy="26" r="18" fill="#FFF8EF"/>
  <path d="M14.2 20.6H19.4" stroke="#25364A" stroke-opacity="0.66" stroke-width="1.6" stroke-linecap="round"/>
  <path d="M13.2 26H19.4" stroke="#25364A" stroke-opacity="0.76" stroke-width="1.8" stroke-linecap="round"/>
  <path d="M14.2 31.4H19.4" stroke="#25364A" stroke-opacity="0.66" stroke-width="1.6" stroke-linecap="round"/>
  <circle cx="13" cy="20.6" r="1.2" fill="#CAD6E6"/>
  <circle cx="12" cy="26" r="1.4" fill="#7B9CD6"/>
  <circle cx="13" cy="31.4" r="1.2" fill="#CAD6E6"/>
  <path d="M20.6 20.4L29.2 18.6L34.7 24.3L31.7 32.4L22.8 34.2L17.3 28.5L20.6 20.4Z" fill="#F5A623"/>
  <path d="M23.6 22.6L28.7 21.6L31.9 24.9L30.2 29.7L24.9 30.8L21.7 27.5L23.6 22.6Z" fill="#FFD166"/>
  <path d="M34.5 24.8L38.8 22.9" stroke="#25364A" stroke-opacity="0.26" stroke-width="1.5" stroke-linecap="round"/>
  <path d="M33.1 27.2H39.1" stroke="#25364A" stroke-opacity="0.74" stroke-width="1.7" stroke-linecap="round"/>
  <path d="M31.9 30.4L37 32.1" stroke="#25364A" stroke-opacity="0.66" stroke-width="1.5" stroke-linecap="round"/>
  <circle cx="39.5" cy="22.7" r="1.3" fill="#7B9CD6"/>
  <circle cx="39.8" cy="27.2" r="1.3" fill="#25364A"/>
  <circle cx="37.6" cy="32.3" r="1.2" fill="#F5A623"/>
</svg>
