<svg width="52" height="52" viewBox="0 0 52 52" fill="none" xmlns="http://www.w3.org/2000/svg">
  <circle cx="26" cy="26" r="18" fill="#FFF8EF"/>
  <path d="M13.6 26C16.4 20.3 20.9 17.4 26 17.4C31.1 17.4 35.6 20.3 38.4 26C35.6 31.7 31.1 34.6 26 34.6C20.9 34.6 16.4 31.7 13.6 26Z" stroke="#25364A" stroke-opacity="0.68" stroke-width="1.7" stroke-linejoin="round"/>
  <path d="M17.5 26H21.7L24.2 22.8L27 29.2L29.4 24.7H34.5" stroke="#F5A623" stroke-width="1.9" stroke-linecap="round" stroke-linejoin="round"/>
  <circle cx="26" cy="26" r="4.7" fill="#FFD166" fill-opacity="0.16" stroke="#F5A623" stroke-opacity="0.6" stroke-width="1.1"/>
  <circle cx="24.2" cy="22.8" r="1.2" fill="#25364A"/>
  <circle cx="29.4" cy="24.7" r="1.2" fill="#25364A"/>
  <path d="M18.8 15.5C20.8 14.1 23.3 13.3 26 13.3C28.7 13.3 31.2 14.1 33.2 15.5" stroke="#25364A" stroke-opacity="0.16" stroke-width="1.4" stroke-linecap="round"/>
  <path d="M33.2 36.5C31.2 37.9 28.7 38.7 26 38.7C23.3 38.7 20.8 37.9 18.8 36.5" stroke="#25364A" stroke-opacity="0.16" stroke-width="1.4" stroke-linecap="round"/>
</svg>
