<svg width="52" height="52" viewBox="0 0 52 52" fill="none" xmlns="http://www.w3.org/2000/svg">
  <circle cx="26" cy="26" r="18" fill="#FFF8EF"/>
  <path d="M20.1 13.8C21.9 12.9 23.9 12.4 26 12.4C28.1 12.4 30.1 12.9 31.9 13.8" stroke="#25364A" stroke-opacity="0.18" stroke-width="1.4" stroke-linecap="round"/>
  <path d="M38.2 19.6C39.1 21.5 39.6 23.7 39.6 26C39.6 28.3 39.1 30.5 38.2 32.4" stroke="#25364A" stroke-opacity="0.18" stroke-width="1.4" stroke-linecap="round"/>
  <path d="M31.9 38.2C30.1 39.1 28.1 39.6 26 39.6C23.9 39.6 21.9 39.1 20.1 38.2" stroke="#25364A" stroke-opacity="0.18" stroke-width="1.4" stroke-linecap="round"/>
  <path d="M13.8 32.4C12.9 30.5 12.4 28.3 12.4 26C12.4 23.7 12.9 21.5 13.8 19.6" stroke="#25364A" stroke-opacity="0.18" stroke-width="1.4" stroke-linecap="round"/>
  <path d="M18.6 20V17.8H20.8" stroke="#25364A" stroke-opacity="0.72" stroke-width="1.65" stroke-linecap="round" stroke-linejoin="round"/>
  <path d="M31.2 17.8H33.4V20" stroke="#25364A" stroke-opacity="0.72" stroke-width="1.65" stroke-linecap="round" stroke-linejoin="round"/>
  <path d="M18.6 32V34.2H20.8" stroke="#25364A" stroke-opacity="0.72" stroke-width="1.65" stroke-linecap="round" stroke-linejoin="round"/>
  <path d="M31.2 34.2H33.4V32" stroke="#25364A" stroke-opacity="0.72" stroke-width="1.65" stroke-linecap="round" stroke-linejoin="round"/>
  <path d="M26 18.7L33.3 26L26 33.3L18.7 26L26 18.7Z" fill="#F5A623"/>
  <path d="M26 21.7L30.3 26L26 30.3L21.7 26L26 21.7Z" fill="#FFD166"/>
  <circle cx="26" cy="26" r="1.45" fill="#25364A"/>
  <circle cx="35.8" cy="16.2" r="2" fill="#F5A623"/>
</svg>
